<svg width="30" height="18" viewBox="0 0 30 18" fill="none" xmlns="http://www.w3.org/2000/svg">
<path d="M5.22347 9.79307C5.19337 9.57436 5.15205 9.35735 5.09968 9.14288C4.61841 7.56022 5.00366 6.09903 5.87366 4.79172C6.62773 3.65424 7.59975 2.6775 8.73356 1.91794C9.66719 1.2932 10.7061 0.992403 11.7739 0.76102C13.8922 0.305195 15.8521 0.728627 17.6476 1.91794C18.5812 2.53573 19.2488 3.40342 19.7705 4.37523C20.2079 5.19085 20.5572 6.04813 20.6776 6.94937C20.887 7.13794 21.0779 7.03498 21.263 6.9887C21.7763 6.85197 22.3119 6.8194 22.838 6.89292C23.3642 6.96643 23.8703 7.14455 24.3265 7.41676C24.9698 7.76919 25.487 8.31356 25.8062 8.97397C26.004 9.3893 26.1706 9.81852 26.3742 10.2952C26.6286 10.3114 26.8838 10.309 27.1378 10.2882C27.6977 10.2072 28.1617 10.3947 28.6348 10.677C29.9213 11.4417 30.1446 12.5847 29.926 13.7428C29.6946 14.9772 29.0328 15.9132 27.8551 16.4835C26.4413 17.1684 24.942 17.3732 23.4125 17.3639C21.9224 17.3558 20.4335 17.2482 18.9445 17.173C17.2936 17.0828 15.6438 16.9266 13.9917 16.8861C12.8653 16.8589 11.7384 16.9157 10.6205 17.0562C8.44549 17.3315 6.27164 17.5085 4.0816 17.3732C3.52091 17.3241 2.96547 17.227 2.42142 17.0828C1.44614 16.8514 0.841074 16.185 0.413015 15.3058C0.0682542 14.5966 -0.0185145 13.8608 -3.82491e-06 13.088C0.00546337 12.5179 0.215224 11.9686 0.59118 11.54C1.69951 10.2767 3.04153 9.53854 4.78963 9.79191C4.93413 9.79988 5.07894 9.80026 5.22347 9.79307ZM25.1224 11.3642C25.0669 11.0576 25.0206 10.7683 24.9616 10.4826C24.7395 9.40781 24.1923 8.61185 23.1291 8.18842C22.5032 7.93969 21.9224 7.88531 21.3173 8.20231C21.0566 8.34496 20.786 8.46868 20.5075 8.57252C20.0019 8.74953 19.6803 8.57252 19.5299 8.04612C19.4886 7.92017 19.4664 7.78876 19.464 7.65624C19.4825 6.79665 19.1423 6.0273 18.7929 5.28572C18.0652 3.75512 16.9211 2.66415 15.2956 2.08569C13.898 1.58937 12.5086 1.60673 11.0995 2.00818C10.4937 2.17967 9.91916 2.44681 9.39763 2.79951C8.47557 3.4173 7.75134 4.23177 7.05719 5.07632C6.60733 5.61412 6.30052 6.25678 6.1652 6.94474C5.9882 7.85755 5.95812 8.78539 6.52848 9.62763C6.71769 9.93961 6.86952 10.2728 6.98083 10.6203C7.01328 10.7054 7.02267 10.7976 7.00804 10.8875C6.9934 10.9775 6.95527 11.0619 6.8975 11.1324C6.83972 11.2028 6.76436 11.2568 6.67904 11.2887C6.59372 11.3207 6.50147 11.3296 6.41163 11.3144C6.18255 11.2763 5.96204 11.198 5.76028 11.083C4.40322 10.3137 2.83676 10.8783 1.96675 11.8327C1.72496 12.0953 1.46581 12.4112 1.3883 12.7409C1.16732 13.6861 1.37673 14.5758 1.96097 15.3659C2.34275 15.8819 2.89923 16.0948 3.49273 16.2024C4.60321 16.4057 5.73754 16.4446 6.85935 16.3181C8.37376 16.1457 9.887 15.9259 11.406 15.8356C14.0881 15.6809 16.7783 15.7498 19.4489 16.0416C21.229 16.2365 23.0223 16.2829 24.8101 16.1804C25.6581 16.1307 26.4298 15.8634 27.1806 15.4978C27.5358 15.3149 27.8397 15.0461 28.0645 14.7157C28.422 14.2194 28.5909 13.6491 28.7285 13.0671C28.7742 12.8887 28.7703 12.7013 28.7173 12.525C28.6642 12.3486 28.5642 12.1901 28.4277 12.0664C28.3121 11.9507 28.1964 11.8281 28.0703 11.7193C27.6422 11.3642 27.1968 11.1513 26.6114 11.3723C26.1729 11.5458 25.7021 11.5631 25.1201 11.3642H25.1224Z" fill="black"/>
<path d="M25.1201 11.3642C25.6986 11.5631 26.1729 11.5458 26.6091 11.3804C27.1945 11.1571 27.6399 11.3699 28.0679 11.7274C28.194 11.8339 28.3074 11.9588 28.4254 12.0745C28.5618 12.1982 28.6619 12.3567 28.7149 12.5331C28.7679 12.7094 28.7718 12.8968 28.7262 13.0752C28.5885 13.6537 28.4196 14.2322 28.0621 14.7238C27.8374 15.0542 27.5335 15.323 27.1783 15.5059C26.4274 15.8715 25.6558 16.1388 24.8077 16.1885C23.0199 16.291 21.2267 16.2446 19.4466 16.0497C16.776 15.7579 14.0857 15.689 11.4037 15.8437C9.88468 15.934 8.37143 16.1538 6.85703 16.3262C5.73521 16.4527 4.60088 16.4138 3.4904 16.2105C2.8969 16.1029 2.34042 15.89 1.95864 15.374C1.38018 14.5839 1.165 13.6942 1.38597 12.749C1.46348 12.4181 1.72263 12.1034 1.96443 11.8408C2.83674 10.8783 4.40321 10.3137 5.76027 11.0865C5.96202 11.2015 6.18254 11.2798 6.41161 11.3179C6.50146 11.333 6.59371 11.3242 6.67903 11.2922C6.76435 11.2602 6.83971 11.2063 6.89748 11.1358C6.95526 11.0654 6.99339 10.9809 7.00802 10.891C7.02266 10.8011 7.01327 10.7089 6.98082 10.6237C6.8695 10.2763 6.71767 9.94308 6.52846 9.6311C5.9581 8.78192 5.98818 7.85407 6.16519 6.94474C6.30051 6.25678 6.60732 5.61412 7.05717 5.07632C7.75132 4.23177 8.47555 3.4173 9.39762 2.79604C9.91914 2.44334 10.4937 2.1762 11.0994 2.0047C12.5086 1.60325 13.898 1.5859 15.2956 2.08222C16.9153 2.66068 18.0652 3.75512 18.786 5.28572C19.1331 6.0273 19.4801 6.79665 19.457 7.65624C19.4595 7.78876 19.4817 7.92017 19.5229 8.04612C19.6733 8.56789 19.995 8.74953 20.5005 8.57252C20.779 8.46868 21.0497 8.34496 21.3104 8.20231C21.9155 7.88531 22.4962 7.93969 23.1221 8.18842C24.1853 8.61185 24.7325 9.40781 24.9547 10.4826C25.0183 10.7683 25.0646 11.0576 25.1201 11.3642Z" fill="black"/>
</svg>
