<svg width="27" height="27" viewBox="0 0 27 27" fill="none" xmlns="http://www.w3.org/2000/svg">
<path d="M12.8734 25.7443C5.77731 25.7443 0 19.9675 0 12.8722C0 5.77677 5.77731 0 12.8734 0C19.9694 0 25.7467 5.77677 25.7467 12.8722C25.7467 19.9675 19.9694 25.7443 12.8734 25.7443ZM12.8734 1.88373C6.80718 1.88373 1.88391 6.8191 1.88391 12.8722C1.88391 18.9252 6.80718 23.8606 12.8734 23.8606C18.9395 23.8606 23.8628 18.9252 23.8628 12.8722C23.8628 6.8191 18.9395 1.88373 12.8734 1.88373Z" fill="#EEEFEF"/>
<path d="M26.0612 27C25.8225 27 25.5839 26.9121 25.3955 26.7237L22.8836 24.2121C22.5194 23.8479 22.5194 23.2451 22.8836 22.8809C23.2479 22.5167 23.8507 22.5167 24.2149 22.8809L26.7268 25.3925C27.091 25.7567 27.091 26.3595 26.7268 26.7237C26.5384 26.9121 26.2998 27 26.0612 27Z" fill="#EEEFEF"/>
</svg>
